<svg width="24" height="23" viewBox="0 0 24 23" fill="none" xmlns="http://www.w3.org/2000/svg">
<path d="M11.125 4.70079L12 6.28157L12.8749 4.70079C13.335 3.86942 14.0064 3.17418 14.8212 2.6853C15.6276 2.20146 16.5462 1.93669 17.4861 1.91695C19.0062 1.99075 20.4368 2.65915 21.469 3.77861C22.5078 4.90533 23.0585 6.39739 23.0007 7.92883L23 7.94767V7.96653C23 9.91094 21.9628 12.0717 20.3095 14.2433C18.6743 16.3913 16.5363 18.4204 14.5573 20.0804L14.5566 20.081C13.8406 20.6827 12.9353 21.0126 12 21.0126C11.0647 21.0126 10.1593 20.6827 9.4433 20.081L9.44262 20.0804C7.46364 18.4204 5.32559 16.3913 3.69038 14.2433C2.03714 12.0717 0.999958 9.91094 0.999958 7.96653V7.94767L0.999247 7.92883C0.94146 6.39739 1.49213 4.90533 2.53094 3.77861C3.56308 2.65915 4.99374 1.99075 6.51382 1.91695C7.45368 1.93669 8.3723 2.20146 9.1787 2.6853C9.99351 3.17418 10.6649 3.86942 11.125 4.70079Z" stroke="#374957" stroke-width="2"/>
</svg>
