<svg fill="none" height="24" viewBox="0 0 24 24" width="24" xmlns="http://www.w3.org/2000/svg"><g fill="#1c274c"><path d="m16 10.5c0 .8284-.4477 1.5-1 1.5s-1-.6716-1-1.5c0-.82843.4477-1.5 1-1.5s1 .67157 1 1.5z"/><path d="m10 10.5c0 .8284-.44771 1.5-1 1.5-.55228 0-1-.6716-1-1.5 0-.82843.44772-1.5 1-1.5.55229 0 1 .67157 1 1.5z"/><path clip-rule="evenodd" d="m11.9426 1.25h.1148c2.3084-.00001 4.1174-.00002 5.5289.18975 1.4447.19424 2.5848.59958 3.4796 1.49439s1.3001 2.03483 1.4944 3.47957c.1897 1.41148.1897 3.22052.1897 5.52889v3.0574c0 4.2802-3.4698 7.75-7.75 7.75h-3.0574c-2.30837 0-4.11741 0-5.52889-.1897-1.44474-.1943-2.58476-.5996-3.47957-1.4944s-1.30015-2.0349-1.49439-3.4796c-.18977-1.4115-.18976-3.2205-.18975-5.5289v-.1148c-.00001-2.30837-.00002-4.11741.18975-5.52889.19424-1.44474.59958-2.58476 1.49439-3.47957s2.03483-1.30015 3.47957-1.49439c1.41148-.18977 3.22052-.18976 5.52889-.18975zm-5.32902 1.67637c-1.27841.17188-2.04913.49877-2.61878 1.06843-.56966.56965-.89655 1.34037-1.06843 2.61878-.17478 1.29998-.17637 3.0082-.17637 5.38642 0 2.3782.00159 4.0864.17637 5.3864.17188 1.2784.49877 2.0491 1.06843 2.6188.56965.5697 1.34037.8966 2.61878 1.0684 1.29998.1748 3.0082.1764 5.38642.1764h2.2504c.0034-1.3663.0331-2.2638.281-3.0268.1751-.5387.4262-1.0416.741-1.4963-.9387.6452-2.0632 1.0231-3.2724 1.0231-1.285 0-2.4742-.4267-3.44661-1.1475-.33277-.2466-.40257-.7163-.15592-1.0491.24666-.3328.71638-.4026 1.04914-.1559.72839.5398 1.60749.8525 2.55339.8525s1.825-.3127 2.5534-.8525c.3328-.2467.8025-.1769 1.0491.1559.1302.1757.1723.3895.134.5885.665-.7348 1.5179-1.2957 2.4867-1.6105.763-.2479 1.6605-.2776 3.0268-.281v-2.2504c0-2.37822-.0016-4.08644-.1764-5.38642-.1718-1.27841-.4987-2.04913-1.0684-2.61878-.5697-.56966-1.3404-.89655-2.6188-1.06843-1.3-.17478-3.0082-.17637-5.3864-.17637-2.37822 0-4.08644.00159-5.38642.17637zm14.59172 12.82493c-1.3571.0058-1.9992.0379-2.5186.2067-1.2939.4204-2.3083 1.4348-2.7287 2.7287-.1688.5194-.2009 1.1615-.2067 2.5186 2.8512-.3416 5.1124-2.6028 5.454-5.454z" fill-rule="evenodd"/></g></svg>