<svg fill="none" height="24" viewBox="0 0 24 24" width="24" xmlns="http://www.w3.org/2000/svg"><g stroke="#292d32" stroke-linecap="round" stroke-linejoin="round" stroke-width="1.5"><path d="m18 18.86h-.76c-.8 0-1.56.31-2.12.87l-1.71 1.69c-.78.77-2.05.77-2.83 0l-1.71-1.69c-.56-.56-1.33-.87-2.12-.87h-.75c-1.66 0-3-1.33-3-2.97v-10.91002c0-1.64 1.34-2.96997 3-2.96997h12c1.66 0 3 1.32997 3 2.96997v10.91002c0 1.63-1.34 2.97-3 2.97z" stroke-miterlimit="10"/><path d="m11.9999 10.0001c1.2869 0 2.3301-1.04323 2.3301-2.33006 0-1.28682-1.0432-2.32995-2.3301-2.32995-1.2868 0-2.32998 1.04313-2.32998 2.32995 0 1.28683 1.04318 2.33006 2.32998 2.33006z"/><path d="m16 15.6601c0-1.8-1.79-3.26-4-3.26s-4 1.46-4 3.26"/></g></svg>